<svg xmlns="http://www.w3.org/2000/svg" xmlns:xlink="http://www.w3.org/1999/xlink" viewBox="0 0 9 9"><defs><style>.cls-1{fill:none;}.cls-2{clip-path:url(#clip-path);}.cls-3{fill:#fff;}</style><clipPath id="clip-path"><rect class="cls-1" width="9" height="9"/></clipPath></defs><g id="Layer_2" data-name="Layer 2"><g id="Layer_1-2" data-name="Layer 1"><g class="cls-2"><path class="cls-3" d="M4.5.81c1.2,0,1.34,0,1.82,0A2.59,2.59,0,0,1,7.15,1a1.38,1.38,0,0,1,.52.34A1.49,1.49,0,0,1,8,1.85a2.18,2.18,0,0,1,.16.83c0,.48,0,.62,0,1.82s0,1.34,0,1.82A2.29,2.29,0,0,1,8,7.16a1.32,1.32,0,0,1-.33.51A1.38,1.38,0,0,1,7.15,8a2.59,2.59,0,0,1-.83.15c-.48,0-.62,0-1.82,0s-1.35,0-1.82,0A2.61,2.61,0,0,1,1.84,8a1.38,1.38,0,0,1-.52-.34A1.45,1.45,0,0,1,1,7.16a2.83,2.83,0,0,1-.16-.84c0-.48,0-.62,0-1.82s0-1.34,0-1.82A2.52,2.52,0,0,1,1,1.85a1.49,1.49,0,0,1,.33-.52A1.38,1.38,0,0,1,1.84,1,2.61,2.61,0,0,1,2.68.84c.47,0,.62,0,1.82,0M4.5,0C3.27,0,3.12,0,2.64,0A3.28,3.28,0,0,0,1.55.24a2,2,0,0,0-.8.52,2.31,2.31,0,0,0-.52.79A3.31,3.31,0,0,0,0,2.64c0,.48,0,.64,0,1.86S0,5.88,0,6.36a3.37,3.37,0,0,0,.2,1.09,2.31,2.31,0,0,0,.52.79,2.12,2.12,0,0,0,.8.52A3.28,3.28,0,0,0,2.64,9c.48,0,.64,0,1.86,0S5.88,9,6.36,9a3.34,3.34,0,0,0,1.09-.21A2.34,2.34,0,0,0,8.76,7.45,3.34,3.34,0,0,0,9,6.36c0-.48,0-.64,0-1.86S9,3.12,9,2.64a3.28,3.28,0,0,0-.21-1.09,2.12,2.12,0,0,0-.52-.8A2.31,2.31,0,0,0,7.45.23,3.37,3.37,0,0,0,6.36,0C5.88,0,5.72,0,4.5,0"/></g><path class="cls-3" d="M4.5,2.19A2.31,2.31,0,1,0,6.81,4.5,2.3,2.3,0,0,0,4.5,2.19M4.5,6A1.5,1.5,0,1,1,6,4.5,1.5,1.5,0,0,1,4.5,6"/><path class="cls-3" d="M7.44,2.1a.54.54,0,1,1-.54-.54.54.54,0,0,1,.54.54"/></g></g></svg>