<svg xmlns="http://www.w3.org/2000/svg" xmlns:xlink="http://www.w3.org/1999/xlink" viewBox="0 0 58.47 59.9"><defs><style>.cls-1{fill:none;}.cls-2{clip-path:url(#clip-path);}.cls-3{fill:#fff;fill-rule:evenodd;}</style><clipPath id="clip-path" transform="translate(-0.02 -0.04)"><rect class="cls-1" width="44.1" height="45"/></clipPath></defs><g id="Layer_2" data-name="Layer 2"><g id="Layer_1-2" data-name="Layer 1"><g class="cls-2"><path class="cls-3" d="M38.26,59.88a22.42,22.42,0,0,0,2.72,0,.44.44,0,0,0,.42-.46.43.43,0,0,0-.46-.42,25.17,25.17,0,0,1-2.61,0,.44.44,0,1,0-.07.88Zm5.42-.24a24.16,24.16,0,0,0,2.65-.6.45.45,0,0,0,.3-.55.44.44,0,0,0-.55-.3,24.56,24.56,0,0,1-2.54.58.43.43,0,0,0-.37.5A.44.44,0,0,0,43.68,59.64ZM33,58.76a17.17,17.17,0,0,0,2.62.74.44.44,0,1,0,.18-.86,17.1,17.1,0,0,1-2.5-.71.45.45,0,0,0-.57.27A.42.42,0,0,0,33,58.76Zm15.93-.66a18.46,18.46,0,0,0,2.41-1.28.45.45,0,0,0-.49-.75,17.13,17.13,0,0,1-2.28,1.23.44.44,0,1,0,.36.8ZM28.22,56a13.31,13.31,0,0,0,2.24,1.59.45.45,0,0,0,.61-.16.46.46,0,0,0-.17-.61,12.92,12.92,0,0,1-2.09-1.48.45.45,0,0,0-.63,0A.44.44,0,0,0,28.22,56Zm25.24-.87a14.19,14.19,0,0,0,1.83-2,.44.44,0,1,0-.72-.52,12.9,12.9,0,0,1-1.71,1.91.43.43,0,0,0,0,.62A.45.45,0,0,0,53.46,55.16ZM25,51.73a7.87,7.87,0,0,1,.59,1,12.38,12.38,0,0,0,.8,1.31.45.45,0,0,0,.73-.51,9.77,9.77,0,0,1-.74-1.21,7.69,7.69,0,0,0-.66-1.05.44.44,0,0,0-.72.51ZM56.53,50.6a6.81,6.81,0,0,0,0-2.81.46.46,0,0,0-.52-.36.44.44,0,0,0-.35.52,6.12,6.12,0,0,1,0,2.45.43.43,0,0,0,.33.53A.44.44,0,0,0,56.53,50.6ZM21.08,48.46a16.34,16.34,0,0,1,2.14,1.45.44.44,0,1,0,.57-.68,17.3,17.3,0,0,0-2.27-1.53.44.44,0,0,0-.44.76ZM16.3,46.3c.83.32,1.65.65,2.44,1a.46.46,0,0,0,.59-.23.44.44,0,0,0-.22-.58c-.81-.36-1.65-.69-2.5-1a.44.44,0,0,0-.57.25A.44.44,0,0,0,16.3,46.3Zm39.43-1.13a24.82,24.82,0,0,0-1.22-2.41.44.44,0,0,0-.77.43,25.37,25.37,0,0,1,1.17,2.33.44.44,0,0,0,.58.23A.45.45,0,0,0,55.73,45.17Zm-44.45-.6,2.52.85a.45.45,0,0,0,.57-.28.44.44,0,0,0-.28-.56l-2.52-.85A.46.46,0,0,0,11,44,.45.45,0,0,0,11.28,44.57Zm-5-1.84c.79.34,1.63.66,2.5,1a.44.44,0,0,0,.57-.26.43.43,0,0,0-.27-.57c-.85-.31-1.68-.62-2.46-.95a.44.44,0,1,0-.34.81ZM1.61,39.84a9.53,9.53,0,0,0,2.2,1.69.44.44,0,0,0,.61-.15.45.45,0,0,0-.16-.61,8.73,8.73,0,0,1-2-1.54.45.45,0,0,0-.65.61Zm51.51.63c-.47-.74-1-1.49-1.44-2.23a.46.46,0,0,0-.62-.13.45.45,0,0,0-.13.61c.49.74,1,1.48,1.45,2.22a.44.44,0,0,0,.61.14A.43.43,0,0,0,53.12,40.47ZM0,34.57A11.35,11.35,0,0,0,.3,37.3a.43.43,0,0,0,.52.34.44.44,0,0,0,.35-.52,10.08,10.08,0,0,1-.25-2.53.44.44,0,0,0-.43-.45A.44.44,0,0,0,0,34.57ZM50.24,36c-.48-.76-.94-1.52-1.34-2.26a.44.44,0,1,0-.78.42c.42.76.88,1.53,1.36,2.3a.45.45,0,0,0,.62.14A.44.44,0,0,0,50.24,36ZM2.14,29.49A7.38,7.38,0,0,0,.6,31.83a.44.44,0,0,0,.24.58.45.45,0,0,0,.58-.25A6.51,6.51,0,0,1,2.79,30.1a.45.45,0,0,0,0-.63A.44.44,0,0,0,2.14,29.49Zm45.64,1.92A10.08,10.08,0,0,1,47.11,29a.44.44,0,0,0-.49-.38.46.46,0,0,0-.39.5A10.93,10.93,0,0,0,47,31.73a.45.45,0,0,0,.58.25A.43.43,0,0,0,47.78,31.41ZM6.71,26.51A19.57,19.57,0,0,0,4.3,27.77a.44.44,0,0,0,.47.75,20.86,20.86,0,0,1,2.3-1.21.44.44,0,0,0,.23-.58A.45.45,0,0,0,6.71,26.51Zm40.69.1a7,7,0,0,1,1.46-2,.43.43,0,0,0,0-.62.44.44,0,0,0-.63,0,7.84,7.84,0,0,0-1.63,2.27.44.44,0,0,0,.81.36Zm-35.69-2-2.5.91a.44.44,0,0,0-.26.57.44.44,0,0,0,.57.26l2.5-.91a.44.44,0,1,0-.31-.83Zm4.77-2.13a17.17,17.17,0,0,1-2.31,1.17.44.44,0,0,0,.35.81A17.24,17.24,0,0,0,17,23.2a.44.44,0,1,0-.47-.74Zm34.34.42c.67-.54,1.39-1.08,2.09-1.64a.43.43,0,0,0,.07-.62.44.44,0,0,0-.62-.07l-2.1,1.64a.43.43,0,0,0-.06.62A.44.44,0,0,0,50.82,22.88ZM19.15,18.59a4.18,4.18,0,0,1-.81,2.23.42.42,0,0,0,.09.61.44.44,0,0,0,.62-.09,4.83,4.83,0,0,0,1-2.69.44.44,0,0,0-.41-.47A.44.44,0,0,0,19.15,18.59Zm35.81.9a14.13,14.13,0,0,0,1.82-2,.43.43,0,0,0-.11-.61.44.44,0,0,0-.62.1,13.36,13.36,0,0,1-1.7,1.92.43.43,0,0,0,0,.63A.44.44,0,0,0,55,19.49Zm-37.1-5.85a13.58,13.58,0,0,0,.53,1.5c.15.35.28.69.39,1a.46.46,0,0,0,.56.29.44.44,0,0,0,.28-.56,11.37,11.37,0,0,0-.41-1.09,9.57,9.57,0,0,1-.49-1.38.45.45,0,0,0-.86.23ZM58.06,15a8.62,8.62,0,0,0,.44-2.75.45.45,0,0,0-.45-.44.44.44,0,0,0-.44.44,7.48,7.48,0,0,1-.4,2.47.46.46,0,0,0,.29.56A.44.44,0,0,0,58.06,15ZM18.41,8.17a6.86,6.86,0,0,0-.82,2.69.44.44,0,0,0,.4.48.45.45,0,0,0,.48-.4,6,6,0,0,1,.72-2.34A.44.44,0,0,0,19,8,.45.45,0,0,0,18.41,8.17ZM58.24,9.52a11.27,11.27,0,0,0-.85-2.63.46.46,0,0,0-.59-.21.44.44,0,0,0-.21.59,10.64,10.64,0,0,1,.78,2.41.44.44,0,0,0,.52.36A.46.46,0,0,0,58.24,9.52ZM22.36,4.37A13.73,13.73,0,0,0,20.15,6a.43.43,0,0,0,0,.62.44.44,0,0,0,.63,0,13.07,13.07,0,0,1,2.06-1.52.43.43,0,0,0,.15-.6A.44.44,0,0,0,22.36,4.37Zm33.51.21a10.36,10.36,0,0,0-2.1-1.81.44.44,0,0,0-.61.13.43.43,0,0,0,.13.61A9.69,9.69,0,0,1,55.2,5.16a.45.45,0,0,0,.63,0A.43.43,0,0,0,55.87,4.58ZM27.32,2.19c-.86.28-1.71.6-2.53,1a.43.43,0,0,0-.23.58.44.44,0,0,0,.58.23c.79-.34,1.62-.65,2.46-.92a.44.44,0,0,0,.28-.56A.45.45,0,0,0,27.32,2.19Zm24-.67A17.21,17.21,0,0,0,48.72.71a.44.44,0,0,0-.2.86A16.63,16.63,0,0,1,51,2.34a.45.45,0,0,0,.58-.25A.44.44,0,0,0,51.33,1.52ZM32.54.88c-.85.17-1.74.35-2.63.57a.45.45,0,0,0-.32.54.44.44,0,0,0,.54.32c.87-.22,1.74-.4,2.58-.56a.43.43,0,0,0,.35-.51A.45.45,0,0,0,32.54.88Zm5.39-.7h-.06c-.76.06-1.67.15-2.67.28a.44.44,0,0,0-.39.5.45.45,0,0,0,.5.38c1-.13,1.88-.22,2.62-.27h.12C38.84,1,39.73,1,40.69.93a.45.45,0,0,0,0-.89c-1,0-1.88.08-2.69.14Zm8.12.07c-.91-.1-1.81-.17-2.69-.2a.44.44,0,0,0-.46.43.43.43,0,0,0,.43.45c.85,0,1.74.1,2.62.2a.44.44,0,0,0,.49-.38A.46.46,0,0,0,46.05.25Z" transform="translate(-0.02 -0.04)"/></g></g></g></svg>