<svg xmlns="http://www.w3.org/2000/svg" xmlns:xlink="http://www.w3.org/1999/xlink" viewBox="0 0 9 9"><defs><style>.cls-1{fill:none;}.cls-2{clip-path:url(#clip-path);}.cls-3{fill:#fff;}</style><clipPath id="clip-path"><rect class="cls-1" width="9" height="9"/></clipPath></defs><g id="Layer_2" data-name="Layer 2"><g id="Layer_1-2" data-name="Layer 1"><g class="cls-2"><path class="cls-3" d="M6.74,0H2.25A2.26,2.26,0,0,0,0,2.26V6.75A2.26,2.26,0,0,0,2.25,9h4.5A2.27,2.27,0,0,0,9,6.74V2.26A2.28,2.28,0,0,0,6.74,0ZM3,7.28H1.71V3.57H3ZM2.35,3A.66.66,0,1,1,3,2.34.65.65,0,0,1,2.35,3ZM7.28,7.28H6.21V5.48c0-.43-.06-1-.65-1s-.71.47-.71,1V7.28H3.78V3.57h1v.5h0A1.19,1.19,0,0,1,5.9,3.56c1.18,0,1.39.68,1.39,1.69v2Z"/></g></g></g></svg>