<svg xmlns="http://www.w3.org/2000/svg" xmlns:xlink="http://www.w3.org/1999/xlink" viewBox="0 0 5.53 5.53"><defs><style>.cls-1{fill:none;}.cls-2{clip-path:url(#clip-path);}.cls-3{fill:#fff;}</style><clipPath id="clip-path" transform="translate(-0.37 -0.09)"><rect class="cls-1" width="5.97" height="5.63"/></clipPath></defs><g id="Layer_2" data-name="Layer 2"><g id="Layer_1-2" data-name="Layer 1"><g class="cls-2"><path class="cls-3" d="M5.56,3.9l-.65-.31a.52.52,0,0,0-.66.13l-.42.46a.26.26,0,0,1-.32.05,6.63,6.63,0,0,1-1-.78,6,6,0,0,1-.78-1,.26.26,0,0,1,.05-.32l.46-.42a.52.52,0,0,0,.13-.66L2.09.43A.47.47,0,0,0,1.32.2,3.43,3.43,0,0,0,.69.71C0,1.43.44,3,1.71,4.28S4.56,6,5.28,5.29a3.44,3.44,0,0,0,.51-.62.48.48,0,0,0-.23-.77" transform="translate(-0.37 -0.09)"/></g></g></g></svg>