<svg xmlns="http://www.w3.org/2000/svg" xmlns:xlink="http://www.w3.org/1999/xlink" viewBox="0 0 3.75 7.48"><defs><style>.cls-1{fill:none;}.cls-2{clip-path:url(#clip-path);}.cls-3{fill:#fff;}</style><clipPath id="clip-path" transform="translate(0 -0.01)"><rect class="cls-1" width="3.75" height="7.5"/></clipPath></defs><g id="Layer_2" data-name="Layer 2"><g id="Layer_1-2" data-name="Layer 1"><g class="cls-2"><path class="cls-3" d="M1.88,0A2,2,0,0,0,0,2.11C0,3.27,1.88,7.49,1.88,7.49S3.75,3.27,3.75,2.11A2,2,0,0,0,1.88,0Zm0,3A.89.89,0,0,1,1,2.11a.89.89,0,0,1,.84-.93.88.88,0,0,1,.83.93A.89.89,0,0,1,1.88,3Z" transform="translate(0 -0.01)"/></g></g></g></svg>